<svg width="640" height="520" viewBox="0 0 640 520" fill="none" xmlns="http://www.w3.org/2000/svg">
  <rect width="640" height="520" rx="36" fill="#F4F8FB"/>
  <circle cx="118" cy="112" r="68" fill="#DFF4F1"/>
  <circle cx="545" cy="415" r="58" fill="#E9F4FF"/>
  <rect x="88" y="88" width="280" height="344" rx="30" fill="white" stroke="#D7E4ED" stroke-width="2"/>
  <rect x="116" y="124" width="224" height="32" rx="16" fill="#0D7A72"/>
  <rect x="116" y="182" width="160" height="14" rx="7" fill="#D7E4ED"/>
  <rect x="116" y="208" width="206" height="14" rx="7" fill="#D7E4ED"/>
  <rect x="116" y="254" width="224" height="96" rx="20" fill="#E9F4FF"/>
  <rect x="136" y="280" width="72" height="14" rx="7" fill="#0D7A72"/>
  <rect x="136" y="308" width="166" height="12" rx="6" fill="#7A8EA1"/>
  <rect x="388" y="138" width="168" height="128" rx="28" fill="white" stroke="#D7E4ED" stroke-width="2"/>
  <rect x="412" y="170" width="120" height="20" rx="10" fill="#0D7A72"/>
  <rect x="412" y="205" width="92" height="12" rx="6" fill="#D7E4ED"/>
  <rect x="356" y="286" width="220" height="122" rx="32" fill="#153047"/>
  <rect x="388" y="320" width="112" height="16" rx="8" fill="white" fill-opacity="0.92"/>
  <rect x="388" y="350" width="146" height="12" rx="6" fill="#A7C0D7"/>
  <rect x="412" y="402" width="128" height="18" rx="9" fill="#0D7A72"/>
</svg>
